<?xml version="1.0" encoding="utf-8"?>
<!-- Generator: Adobe Illustrator 24.1.0, SVG Export Plug-In . SVG Version: 6.00 Build 0)  -->
<svg version="1.1" id="Calque_1" xmlns="http://www.w3.org/2000/svg" xmlns:xlink="http://www.w3.org/1999/xlink" x="0px" y="0px"
	 viewBox="0 0 480 410.2" style="enable-background:new 0 0 480 410.2;" xml:space="preserve">
<style type="text/css">
	.st0{fill:#FFFFFF;}
</style>
<g>
	<path class="st0" d="M19.2,167.4c2.5-2.3,4.5-5.3,7.4-6.7c68.9-33.9,137.8-67.6,206.7-101.5c4.4-2.2,8.2-2.1,12.6,0.1
		c68.9,33.9,137.8,67.6,206.7,101.3c4,1.9,7.3,4.3,7.1,9.2c-0.2,4.9-3.6,7-7.7,8.8c-16.1,7.1-32.2,14.3-48.5,21.6
		c0.2,1.2,0.4,2.3,0.7,3.3c3.4,10.3,6.6,20.7,10.2,31c0.6,1.7,2.4,3.5,4.1,4.2c15,6,21.7,23.5,14,37.8c-1.3,2.4-1.5,4.3-0.5,6.8
		c1.9,4.6,3.7,9.3,5.4,14c2,5.6,0.2,10.4-4.3,12.4c-4.5,1.9-9.3-0.6-11.6-6c-1.6-3.8-3-7.6-5.3-11.4c-0.7,4.8-1.4,9.7-2.1,14.5
		c-0.9,6.4-4.8,10.2-9.9,9.5c-5.1-0.8-8-5.5-7.1-11.8c0.5-4.1,1.1-8.2,0.9-12.8c-2.5,3.7-5,7.4-7.5,11c-2.5,3.6-5.6,5.8-10.2,4.5
		c-5.8-1.6-8-7.6-4.7-13.1c2.7-4.5,6-8.8,8.8-13.3c0.7-1.1,1.2-3.2,0.7-4.1c-6.7-12.2-2.7-29.6,12.1-37.1c0.1-0.1,0.2-0.2,0.5-0.7
		c-3.3-10.2-6.8-20.6-10.3-31.4c-12.2,5.4-24.1,10.7-36,16c0,20.3,0,40.4,0,60.4c0,10.5-1.5,12.4-11.8,14.3
		c-19.2,3.5-38.1,8.2-55.8,16.6c-15.3,7.3-28.6,16.8-36.5,32.5c-3.5,6.9-12,7.2-15.3,0.4c-9.6-19.5-26.6-29.7-46-36.3
		c-15.4-5.2-31.3-9-47.1-13.1c-9.7-2.5-11.3-4-11.3-14c0-18.8-0.1-37.6,0.1-56.4c0-3.4-0.9-5-4.1-6.3c-31.9-14-63.6-28.1-95.4-42.4
		c-3.3-1.5-6.1-4.4-9.1-6.6C19.2,170.8,19.2,169.1,19.2,167.4z M48.5,169.3c26.7,11.9,52.8,23.5,78.7,35c0.6-5.8,0.5-11.4,1.9-16.6
		c3.1-10.9,11.5-17.6,20.9-22.9c21.9-12.3,46-16.2,70.6-18.1c18.4-1.4,36.7-0.7,54.9,1.7c18.7,2.5,36.9,6.9,53.5,16.2
		c14.5,8.1,24.3,19.2,22.5,37.2c-0.1,0.7,0.1,1.4,0.2,2.6c26.3-11.7,52.4-23.3,79.1-35.2c-1.9-1-3-1.6-4.1-2.2
		c-61.2-30-122.4-60-183.6-90.1c-2.6-1.3-4.6-1.2-7.1,0.1c-61,30-122.1,59.9-183.2,89.9C51.5,167.6,50.3,168.3,48.5,169.3z
		 M239.8,327c11.5-14.4,26.2-24.4,43-30.6c16.7-6.1,33.9-10.9,51.4-16.4c0-11.1-0.3-23.1,0.1-35.1c0.2-6.6-2.1-11.7-7.4-15
		c-6.2-3.8-12.5-7.8-19.3-10.2c-36.9-12.7-74.7-13.3-112.8-6.5c-13.6,2.4-26.7,6.5-38.6,13.7c-7.6,4.6-12.3,10.5-11.5,20.3
		c0.8,10,0.2,20.1,0.2,30.1c0,1.4,0,2.8,0,3.6c14.5,4.1,28.5,7.7,42.2,12.1c15.8,5.1,30.6,12.3,42.9,23.7
		C233.3,320,236.3,323.4,239.8,327z M334.2,213.7c0-5.7-0.2-10.7,0.1-15.7c0.3-5.2-1.4-9.7-5.6-12.3c-6.9-4.4-14-9-21.6-12
		c-19.2-7.4-39.4-9.7-59.8-10.3c-23.6-0.7-46.9,1.4-69.6,8.3c-9.9,3-19.6,6.7-27.2,14c-2.4,2.2-4.7,5.5-5.1,8.6
		c-0.8,6.2-0.2,12.5-0.2,19.3c29.4-17.6,61.6-21.5,94.2-21.6C272.1,192,304.4,195.8,334.2,213.7z M399.5,263.7
		c-0.1,5.2,4.3,9.7,9.5,9.7c5.1,0,9.6-4.4,9.7-9.5c0.1-5.2-4.2-9.6-9.5-9.6C403.9,254.2,399.5,258.4,399.5,263.7z"/>
	<path class="st0" d="M363.5,336c-4.6,0-8.5-3.9-8.6-8.5c0-4.5,4-8.6,8.5-8.6c4.5,0,8.5,4,8.6,8.5C372.1,332.1,368.1,336,363.5,336z
		"/>
	<path class="st0" d="M442.7,325c4.5,0,8.5,4,8.6,8.5c0,4.6-4,8.5-8.5,8.5c-4.6,0-8.5-3.9-8.6-8.5C434.1,329.1,438.2,325,442.7,325z
		"/>
	<path class="st0" d="M400.5,350.7c-4.6,0-8.5-4-8.5-8.5c0-4.5,4.1-8.5,8.6-8.5c4.5,0,8.5,4.1,8.5,8.6
		C409,346.7,405,350.7,400.5,350.7z"/>
</g>
</svg>
