<?xml version="1.0" encoding="utf-8"?>
<!-- Generator: Adobe Illustrator 24.1.0, SVG Export Plug-In . SVG Version: 6.00 Build 0)  -->
<svg version="1.1" id="Calque_1" xmlns="http://www.w3.org/2000/svg" xmlns:xlink="http://www.w3.org/1999/xlink" x="0px" y="0px"
	 viewBox="0 0 600 600" style="enable-background:new 0 0 600 600;" xml:space="preserve">
<style type="text/css">
	.st0{fill:#F2FAFC;}
</style>
<g>
	<g>
		<path class="st0" d="M167.6,490.2l-0.1-0.7c-0.2-3.3,0.9-6.7,3.2-9.1c2.2-2.4,5.3-3.7,8.6-3.7H274c-37.8-5-72.5-20.8-98.8-45.3
			c-34.1-31.7-52.6-76.2-53.5-128.7c0.8-48.4,16.8-90.3,46.1-121.3c0,0,0.1-0.1,0.2-0.3c31.1-32.9,77.2-52.6,126.3-54.1V96.5
			c0-3.9,3.6-6.3,7-6.3c1.2,0,2.3,0.3,3.2,0.8c2.2,1.2,3.3,3,3.3,5.2v30.9c48.8,1.8,92.9,20.9,124.1,53.9l0.2,0.2
			c29.3,31.1,45.2,73,46,121.4c-0.9,52.5-19.4,97-53.5,128.7c-26.4,24.5-61,40.3-98.8,45.3h107.1v0.7c0.2,2.9-0.9,5.8-3.1,8.2
			c-2.5,2.8-6,4.4-9.6,4.6l0,0L167.6,490.2L167.6,490.2z M167.6,202.5c-20.7,27.3-31.6,60.9-32.3,100.1c0.9,50.3,19,92.4,52.2,121.6
			c28.3,24.8,65.9,39.1,106.3,40.4c-2.6-1.5-4.7-3.8-5.9-6.7l-63.8-145.8c-24.2,6-41.5,28-43,54.9c-0.2,3.7-3.5,7-7.1,7
			c-1.4,0-2.8-0.5-3.9-1.5c-1.7-1.6-2.6-3.2-2.6-4.9c-0.3-31.5,20.7-59.4,51.1-68l-37.5-85.7v88.2h-13.6L167.6,202.5L167.6,202.5z
			 M314.2,457.9c-1.2,2.9-3.3,5.2-5.8,6.7c42.6-1.7,81.6-18.1,110.1-46.4c29.8-29.8,46.2-70.8,46.1-115.6
			c-0.7-39.1-11.5-72.8-32.2-100l0.8,164.5c0,3.7-3,6.8-6.8,6.8c-1.8,0-3.5-0.7-4.8-2s-2-3-2-4.8l-0.7-153L314.2,457.9z
			 M294.3,438.9v-71.7c0-15.1-5.9-29.3-16.6-40c-10.6-10.6-24.7-16.5-39.6-16.6L294.3,438.9z M238,296.9c18.4,0,35.8,7.3,49.1,20.4
			c13.4,13.3,20.8,30.8,20.8,49.3l-0.1,72.1l78.5-183l-85.2-0.1c-2.2,0-4.2-1-5.5-2.8s-1.6-4-0.9-6.2c0.9-2.7,3.6-4.6,6.6-4.6
			l90.8,0.1l24.6-57.3c-28.6-27.3-66.3-42.7-108.9-44.4v30.4h-13.5v-30.4c-40.8,1.3-78.7,15.7-106.8,40.4c-1.5,1.3-2.9,2.7-4.3,4
			l49.1,112.4C234.2,297,236.1,296.9,238,296.9z"/>
		<path class="st0" d="M301.3,90.9c1,0,2,0.2,2.9,0.7c2.1,1.1,2.9,2.7,2.9,4.5v31.6c46.5,1.5,91.8,19.4,124.3,53.7
			c0.1,0.1,0.2,0.2,0.2,0.2c27.2,28.8,44.9,69.1,45.8,120.9c-1.9,112.7-83.8,170.9-168.5,174.8h123.4c0.3,5.9-5.3,11.7-12.1,12.1
			H168.3c-0.5-6.4,4.5-12.1,11-12.1c0,0,0,0,0.1,0h111.7c-84.7-3.9-166.6-62.1-168.5-174.8c0.9-51.8,18.7-92,45.9-120.8
			c0.1-0.1,0.1-0.2,0.2-0.2c32.8-34.6,79.7-52.6,126.5-53.9V96.5C295.1,93.1,298.2,90.9,301.3,90.9 M231.9,298
			c2.1-0.2,4.1-0.3,6.1-0.3c37.4,0,69.1,30.9,69.1,69l-0.1,75.8l80.4-187.4l-86.3-0.1c-4,0-7-3.9-5.7-8c0.8-2.5,3.3-4,5.9-4
			l91.3,0.1l25-58.2c-29-27.9-67.8-43.4-110.6-45v30.4h-12v-30.5c-40.9,1.2-79.5,15.5-108,40.6c-1.6,1.4-3.2,2.9-4.7,4.4L231.9,298
			 M298,465.4c-4.2-0.9-7.7-3.7-9.5-7.8l-64.1-146.4c-25.3,6-42.6,28.7-44.2,55.7c-0.2,3.4-3.2,6.3-6.3,6.3c-1.2,0-2.3-0.4-3.4-1.3
			c-1.3-1.2-2.3-2.6-2.3-4.3c-0.3-32.3,21.7-59.5,51.4-67.5l-39.2-89.7v91h-12.1V200.3c-21.5,27.4-33.1,62.2-33.8,102.3
			c0.9,50.5,19,92.8,52.5,122.2C216.4,450.6,255.8,465,298,465.4 M426.5,373.1c-3.3,0-6-2.7-6-6l-0.8-156.6L313.5,457.6
			c-1.7,4.1-5.2,6.9-9.3,7.8c91-1.5,161.3-68.9,161.1-162.8c-0.7-40-12.3-74.8-33.7-102.2l0.8,166.7
			C432.5,370.4,429.9,373.1,426.5,373.1L426.5,373.1 M295.1,442.4v-75.3c0-31.6-25.7-57.4-57.2-57.4c-0.3,0-0.6,0-0.8,0L295.1,442.4
			 M301.3,89.4c-3.7,0-7.7,2.7-7.7,7.1v29.7c-49.1,1.7-95,21.5-126.1,54.3c-0.1,0.1-0.2,0.2-0.3,0.3c-14.2,15-25.3,32.6-33,52.2
			c-8.3,21-12.7,44.4-13.2,69.5l0,0l0,0c0.9,52.7,19.5,97.4,53.7,129.3c24.2,22.6,55.4,37.7,89.7,44h-85h-0.1c-3.5,0-6.7,1.4-9.1,4
			c-2.4,2.6-3.7,6.1-3.4,9.7l0.1,1.4h1.4h252l0,0l0,0c3.8-0.2,7.5-1.9,10.2-4.9c2.3-2.6,3.5-5.7,3.3-8.8l-0.1-1.4h-1.4h-96.8
			c34.3-6.2,65.4-21.4,89.7-44c34.2-31.9,52.8-76.6,53.7-129.3l0,0l0,0c-0.4-25.1-4.9-48.5-13.2-69.6c-7.8-19.7-18.9-37.3-33.1-52.3
			l-0.3-0.3c-16-16.8-35.3-30.1-57.4-39.5c-20.8-8.8-43.2-13.7-66.5-14.6V96.1c0-1.8-0.6-4.2-3.7-5.9
			C303.8,89.7,302.6,89.4,301.3,89.4L301.3,89.4z M184.1,185.1c1.2-1.2,2.5-2.4,3.9-3.6c27.8-24.5,65.2-38.7,105.6-40.2v28.9v1.5
			h1.5h12h1.5v-1.5v-28.8c20.6,0.9,40.2,5.1,58.4,12.5c18.4,7.4,34.8,18,48.9,31.3l-24.2,56.4l-90.3-0.1c-3.4,0-6.4,2.1-7.3,5.1
			c-0.8,2.4-0.4,4.9,1,6.9c1.4,1.9,3.7,3.1,6.1,3.1l84.1,0.1l-76.6,178.6l0.1-68.5c0-18.7-7.5-36.4-21-49.8
			c-13.4-13.3-31.1-20.6-49.6-20.7c-1.7,0-3.5,0.1-5.2,0.2L184.1,185.1L184.1,185.1z M136,302.6c0.4-19.7,3.4-38.4,9-55.4
			c5.1-15.5,12.4-29.7,21.8-42.4v96.6v1.5h1.5h12.1h1.5v-1.5v-83.9l35.7,81.6c-30.3,9-51.1,36.9-50.8,68.5c0,1.9,1,3.7,2.8,5.4
			c1.3,1.1,2.8,1.7,4.4,1.7c3.9,0,7.6-3.6,7.8-7.7c1.5-26.3,18.3-47.9,41.8-54l63.5,145.2c1,2.2,2.4,4,4.1,5.5
			c-39.3-1.8-75.8-15.9-103.3-40.1C154.9,394.5,136.9,352.7,136,302.6L136,302.6z M426.5,374.6L426.5,374.6L426.5,374.6
			c4.2,0,7.5-3.4,7.5-7.5l-0.8-162.2c9.3,12.6,16.5,26.9,21.7,42.3c5.6,17,8.7,35.7,9,55.4c0,22.7-4.1,44.3-12.2,64.3
			c-7.8,19.2-19.2,36.3-33.7,50.7c-27.8,27.7-65.6,43.9-107.1,46.1c1.7-1.5,3.1-3.3,4-5.5l103.3-240.4l0.7,149.4
			c0,2,0.8,3.9,2.2,5.3C422.6,373.9,424.5,374.6,426.5,374.6L426.5,374.6z M293.6,435.3l-54.2-124c14.3,0.4,27.7,6.2,37.9,16.4
			c10.6,10.6,16.4,24.6,16.4,39.5L293.6,435.3L293.6,435.3z"/>
	</g>
	<g>
		<path class="st0" d="M301.1,214.8c-0.4,0-0.9,0-1.3-0.1c-2.7-0.5-4.8-2.7-5.4-5.5c-0.4-2.1,0.1-4.3,1.5-5.9
			c1.3-1.6,3.2-2.4,5.2-2.4c0.4,0,0.9,0,1.3,0.1c2.7,0.5,4.8,2.7,5.3,5.5c0.4,2.1-0.1,4.3-1.5,5.9
			C304.9,213.9,303.1,214.8,301.1,214.8L301.1,214.8z"/>
		<path class="st0" d="M301.1,201.6c0.4,0,0.8,0,1.2,0.1c2.4,0.5,4.3,2.5,4.7,4.9c0.7,4-2.2,7.5-5.9,7.5c-0.4,0-0.8,0-1.2-0.1
			c-2.4-0.5-4.3-2.4-4.8-4.9C294.4,205.1,297.4,201.6,301.1,201.6 M301.1,200.1c-2.2,0-4.3,1-5.7,2.7c-1.5,1.8-2.1,4.2-1.7,6.5
			c0.6,3.1,3,5.5,6,6.1c0.5,0.1,1,0.1,1.4,0.1c2.2,0,4.3-1,5.7-2.7c1.5-1.8,2.1-4.2,1.7-6.6c-0.6-3.1-2.9-5.5-5.9-6.1
			C302.1,200.1,301.6,200.1,301.1,200.1L301.1,200.1z"/>
	</g>
</g>
</svg>
